<?xml version="1.0" encoding="utf-8"?>
<!-- Generator: Adobe Illustrator 16.0.0, SVG Export Plug-In . SVG Version: 6.00 Build 0)  -->
<!DOCTYPE svg PUBLIC "-//W3C//DTD SVG 1.1//EN" "http://www.w3.org/Graphics/SVG/1.1/DTD/svg11.dtd">
<svg version="1.1" id="Calque_1" xmlns="http://www.w3.org/2000/svg" xmlns:xlink="http://www.w3.org/1999/xlink" x="0px" y="0px"
	 width="40px" height="40px" viewBox="0 0 40 40" enable-background="new 0 0 40 40" xml:space="preserve">
<rect x="24.195" y="20.658" transform="matrix(-0.7071 0.7071 -0.7071 -0.7071 61.8606 25.7154)" display="none" fill="#453B31" width="2.819" height="10.023"/>
<path display="none" fill="#453B31" d="M16.058,17.103c0,0.613,0.497,1.11,1.11,1.11l0,0c0.613,0,1.11-0.497,1.11-1.11l0,0
	c0-0.613-0.497-1.11-1.11-1.11l0,0C16.555,15.993,16.058,16.49,16.058,17.103L16.058,17.103z"/>
<path display="none" fill="#009EE0" d="M11.994,22.28c-2.853-2.854-2.853-7.495,0-10.348c1.382-1.382,3.219-2.143,5.174-2.143
	c1.954,0,3.792,0.761,5.174,2.143c2.854,2.853,2.854,7.495,0,10.348c-1.382,1.382-3.219,2.143-5.174,2.143
	C15.214,24.423,13.377,23.662,11.994,22.28z M13.133,13.071c-2.225,2.225-2.225,5.846,0,8.072c1.078,1.078,2.511,1.672,4.036,1.672
	s2.958-0.595,4.036-1.672c2.225-2.225,2.225-5.846,0-8.072c-1.078-1.078-2.511-1.672-4.036-1.672S14.211,11.993,13.133,13.071z"/>
<circle fill="none" stroke="#009EE2" stroke-width="1.6341" stroke-miterlimit="10" cx="19.708" cy="20.11" r="10.928"/>
<g enable-background="new    ">
	<path fill="#453B31" d="M13.237,24.564v-7.802h5.785v1.319h-4.21v1.729h3.917v1.315h-3.917v2.123h4.359v1.314H13.237z"/>
	<path fill="#453B31" d="M20.522,24.564v-7.802h1.532l3.193,5.21v-5.21h1.464v7.802h-1.581l-3.145-5.088v5.088H20.522z"/>
</g>
<g enable-background="new    ">
	<path fill="none" stroke="#FFFFFF" stroke-width="0.2481" stroke-miterlimit="10" d="M13.237,24.564v-7.802h5.785v1.319h-4.21
		v1.729h3.917v1.315h-3.917v2.123h4.359v1.314H13.237z"/>
	<path fill="none" stroke="#FFFFFF" stroke-width="0.2481" stroke-miterlimit="10" d="M20.522,24.564v-7.802h1.532l3.193,5.21v-5.21
		h1.464v7.802h-1.581l-3.145-5.088v5.088H20.522z"/>
</g>
</svg>
