<svg version="1.1" xmlns="http://www.w3.org/2000/svg" xmlns:xlink="http://www.w3.org/1999/xlink" x="0px" y="0px"
	 width="40px" height="40px" viewBox="-10 -10 40 40" enable-background="new 0 0 20 20" xml:space="preserve">
	<path fill="#443A31" d="M8.9,4.915c0,0,2.017-2.26,3.477-2.816s2.921-0.139,3.825,0.452c0.904,0.591,2.179,2.416,1.982,4.103
		c-0.129,1.102-0.591,1.704-1.286,2.538c-0.496,0.595-2.138,2.138-3.025,3.025c-0.685,0.685-1.349,0.983-2.121,1.182
		c-0.874,0.226-2.121,0.174-3.06-0.487s-1.426-1.286-1.426-1.286L8.622,10.2c0,0,0.591,0.834,1.356,1.078s1.541,0.369,2.225-0.243
		c0.746-0.667,2.729-2.695,3.234-3.199c0.504-0.504,0.869-1.356,0.661-2.19s-0.869-1.738-1.982-1.843
		c-1.113-0.104-1.53,0.417-1.912,0.695s-0.904,0.869-0.904,0.869s-0.765-0.313-1.321-0.382C9.421,4.915,8.9,4.915,8.9,4.915z"/>
	<path fill="#009ee0" d="M11.1,15.085c0,0-2.017,2.26-3.477,2.816c-1.46,0.556-2.921,0.139-3.825-0.452
		c-0.904-0.591-2.179-2.416-1.982-4.103c0.129-1.102,0.591-1.704,1.286-2.538c0.496-0.595,2.138-2.138,3.025-3.025
		c0.685-0.685,1.349-0.983,2.121-1.182c0.874-0.226,2.121-0.174,3.06,0.487s1.426,1.286,1.426,1.286L11.378,9.8
		c0,0-0.591-0.834-1.356-1.078S8.482,8.354,7.797,8.966c-0.746,0.667-2.729,2.695-3.234,3.199s-0.869,1.356-0.661,2.19
		s0.869,1.738,1.982,1.843s1.53-0.417,1.912-0.695c0.382-0.278,0.904-0.869,0.904-0.869s0.765,0.313,1.321,0.382
		S11.1,15.085,11.1,15.085z"/>
</svg>