<svg version="1.1" xmlns="http://www.w3.org/2000/svg" xmlns:xlink="http://www.w3.org/1999/xlink" x="0px" y="0px"
	 width="40px" height="40px" viewBox="0 0 40 40" enable-background="new 0 0 40 40" xml:space="preserve">
			<rect x="24.195" y="20.659" transform="matrix(-0.7071 0.7071 -0.7071 -0.7071 61.8616 25.7164)" fill="#453B31" width="2.819" height="10.023"/>
	<path fill="#453B31" d="M16.058,17.103c0,0.613,0.497,1.11,1.11,1.11l0,0c0.613,0,1.11-0.497,1.11-1.11l0,0
		c0-0.613-0.497-1.11-1.11-1.11l0,0C16.555,15.993,16.058,16.49,16.058,17.103L16.058,17.103z"/>
	<path fill="#009ee0" d="M11.994,22.28c-2.853-2.853-2.853-7.495,0-10.348c1.382-1.382,3.219-2.143,5.174-2.143
		c1.954,0,3.792,0.761,5.174,2.143c2.853,2.853,2.853,7.495,0,10.348c-1.382,1.382-3.219,2.143-5.174,2.143
		C15.214,24.423,13.377,23.662,11.994,22.28z M13.133,13.071c-2.225,2.225-2.225,5.846,0,8.072c1.078,1.078,2.511,1.671,4.036,1.671
		s2.958-0.594,4.036-1.671c2.225-2.225,2.225-5.846,0-8.072c-1.078-1.078-2.511-1.672-4.036-1.672S14.211,11.993,13.133,13.071z"/>
</svg>